<?xml version="1.0" encoding="utf-8"?>
<!-- Generator: Adobe Illustrator 25.0.0, SVG Export Plug-In . SVG Version: 6.00 Build 0)  -->
<svg version="1.1" id="Capa_1" xmlns="http://www.w3.org/2000/svg" xmlns:xlink="http://www.w3.org/1999/xlink" x="0px" y="0px"
	 viewBox="0 0 792 792" style="enable-background:new 0 0 792 792;" xml:space="preserve">
<style type="text/css">
	.st0{fill:#919191;}
</style>
<g>
	<g id="_x38_">
		<g>
			<path class="st0" d="M338.8,421.1l396.3,361.2c13,12.9,34.1,12.9,47.1,0c13-12.9,13-33.9,0-46.9L409.8,396L782.2,56.6
				c13-12.9,13-33.9,0-46.9s-34.1-12.9-47.1,0L338.8,370.9c-6.9,6.9-9.9,16-9.4,25.1C328.9,405.1,331.9,414.2,338.8,421.1z"/>
		</g>
	</g>
</g>
<g>
	<g id="_x38__1_">
		<g>
			<path class="st0" d="M9.5,421.1l396.3,361.2c13,12.9,34.1,12.9,47.1,0c13-12.9,13-33.9,0-46.9L80.5,396L452.9,56.6
				c13-12.9,13-33.9,0-46.9c-13-12.9-34.1-12.9-47.1,0L9.5,370.9c-6.9,6.9-9.9,16-9.4,25.1C-0.4,405.1,2.6,414.2,9.5,421.1z"/>
		</g>
	</g>
</g>
</svg>
