<?xml version="1.0" encoding="utf-8"?>
<!-- Generator: Adobe Illustrator 25.0.0, SVG Export Plug-In . SVG Version: 6.00 Build 0)  -->
<svg version="1.1" id="Capa_1" xmlns="http://www.w3.org/2000/svg" xmlns:xlink="http://www.w3.org/1999/xlink" x="0px" y="0px"
	 viewBox="0 0 792 792" style="enable-background:new 0 0 792 792;" xml:space="preserve">
<style type="text/css">
	.st0{fill:#919191;}
</style>
<g>
	<g id="_x38_">
		<g>
			<path class="st0" d="M453.2,370.9L56.9,9.7c-13-12.9-34.1-12.9-47.1,0c-13,12.9-13,33.9,0,46.9L382.2,396L9.8,735.5
				c-13,12.9-13,33.9,0,46.9s34.1,12.9,47.1,0l396.3-361.2c6.9-6.9,9.9-16,9.4-25.1C463.1,387,460.1,377.8,453.2,370.9z"/>
		</g>
	</g>
</g>
<g>
	<g id="_x38__1_">
		<g>
			<path class="st0" d="M782.5,370.9L386.2,9.7c-13-12.9-34.1-12.9-47.1,0c-13,12.9-13,33.9,0,46.9L711.5,396L339.1,735.5
				c-13,12.9-13,33.9,0,46.9c13,12.9,34.1,12.9,47.1,0l396.3-361.2c6.9-6.9,9.9-16,9.4-25.1C792.4,387,789.4,377.8,782.5,370.9z"/>
		</g>
	</g>
</g>
</svg>
