<?xml version="1.0" encoding="utf-8"?>
<!-- Generator: Adobe Illustrator 25.0.0, SVG Export Plug-In . SVG Version: 6.00 Build 0)  -->
<svg version="1.1" id="Í_xBC__xB2_ã_x5F_1" xmlns="http://www.w3.org/2000/svg" xmlns:xlink="http://www.w3.org/1999/xlink"
	 x="0px" y="0px" viewBox="0 0 50 50" style="enable-background:new 0 0 50 50;" xml:space="preserve">
<style type="text/css">
	.st0{fill:#ABABAB;}
</style>
<g>
	<g>
		<path class="st0" d="M35.7,21.8c-0.3-1-0.6-1.9-1.1-2.7c-0.5,1.7-1.9,3.2-3.8,3.7c-2.9,0.7-5.8-1-6.6-3.9
			c-0.5-1.9,0.1-3.8,1.4-5.1c-1,0-1.9,0.1-2.9,0.3c-5.7,1.5-9.2,7.3-7.7,13c1.5,5.7,7.3,9.2,13,7.7C33.7,33.3,37.2,27.5,35.7,21.8z"
			/>
	</g>
	<g>
		<path class="st0" d="M25,48.5C12,48.5,1.5,38,1.5,25C1.5,12,12,1.5,25,1.5c6.1,0,11.9,2.3,16.3,6.6c2.2,2.2,4,4.7,5.2,7.5
			c1.3,3,1.9,6.1,1.9,9.4C48.5,38,38,48.5,25,48.5z M25,8C15.7,8,8,15.7,8,25s7.6,17,17,17s17-7.6,17-17c0-2.4-0.5-4.6-1.4-6.8
			c-0.9-2-2.2-3.9-3.8-5.4C33.6,9.7,29.4,8,25,8z"/>
	</g>
</g>
</svg>
